<svg width="480" height="400" viewBox="0 0 480 400" fill="none" xmlns="http://www.w3.org/2000/svg">
  <!-- Background Elements -->
  <circle cx="240" cy="220" r="160" fill="#F6F6FA" opacity="0.5"/>
  <path d="M120 320C120 270 190 230 260 230C330 230 370 270 370 320" stroke="#FFE600" stroke-width="4" stroke-dasharray="8 8"/>
  
  <!-- Dashboard Frame -->
  <rect x="80" y="40" width="320" height="240" rx="8" fill="#FFFFFF" stroke="#2E2E38" stroke-width="2"/>
  <rect x="80" y="40" width="320" height="30" rx="8" fill="#2E2E38"/>
  <circle cx="95" cy="55" r="5" fill="#FF6464"/>
  <circle cx="115" cy="55" r="5" fill="#FFE600"/>
  <circle cx="135" cy="55" r="5" fill="#64FF64"/>
  
  <!-- Dashboard Content -->
  <!-- Navigation -->
  <rect x="95" y="85" width="80" height="10" rx="5" fill="#EBEBF0"/>
  <rect x="190" y="85" width="80" height="10" rx="5" fill="#FFE600"/>
  <rect x="285" y="85" width="80" height="10" rx="5" fill="#EBEBF0"/>
  
  <!-- Chart Section -->
  <rect x="95" y="110" width="130" height="100" rx="5" fill="#F6F6FA"/>
  <path d="M105 175 L125 165 L145 180 L165 145 L185 160 L205 140" stroke="#FFE600" stroke-width="3" stroke-linecap="round" stroke-linejoin="round"/>
  <circle cx="125" cy="165" r="4" fill="#2E2E38"/>
  <circle cx="145" cy="180" r="4" fill="#2E2E38"/>
  <circle cx="165" cy="145" r="4" fill="#2E2E38"/>
  <circle cx="185" cy="160" r="4" fill="#2E2E38"/>
  <circle cx="205" cy="140" r="4" fill="#2E2E38"/>
  
  <!-- Progress Section -->
  <rect x="240" y="110" width="130" height="45" rx="5" fill="#F6F6FA"/>
  <rect x="250" y="125" width="110" height="8" rx="4" fill="#EBEBF0"/>
  <rect x="250" y="125" width="70" height="8" rx="4" fill="#FFE600"/>
  <rect x="250" y="140" width="110" height="5" rx="2.5" fill="#EBEBF0"/>
  
  <!-- Task Section -->
  <rect x="240" y="165" width="130" height="45" rx="5" fill="#F6F6FA"/>
  <circle cx="255" cy="177" r="5" fill="#FFE600"/>
  <rect x="270" y="174" width="90" height="6" rx="3" fill="#2E2E38"/>
  <circle cx="255" cy="192" r="5" stroke="#2E2E38" stroke-width="1.5" fill="none"/>
  <rect x="270" y="189" width="60" height="6" rx="3" fill="#B0B0B8"/>
  
  <!-- Bottom Cards -->
  <rect x="95" y="220" width="80" height="45" rx="5" fill="#FFE600" opacity="0.7"/>
  <rect x="185" y="220" width="80" height="45" rx="5" fill="#F6F6FA"/>
  <rect x="275" y="220" width="80" height="45" rx="5" fill="#F6F6FA"/>
  
  <!-- People Elements -->
  <!-- Person 1 -->
  <circle cx="430" cy="350" r="30" fill="#2E2E38"/>
  <circle cx="430" cy="335" r="15" fill="#FFFFFF"/>
  <path d="M410 370 Q430 380 450 370" stroke="#FFFFFF" stroke-width="2"/>
  
  <!-- Person 2 -->
  <circle cx="40" cy="350" r="25" fill="#FFE600"/>
  <circle cx="40" cy="335" r="12" fill="#FFFFFF"/>
  <path d="M25 365 Q40 375 55 365" stroke="#FFFFFF" stroke-width="2"/>
  
  <!-- Connection Lines -->
  <path d="M430 320 Q390 270 350 280" stroke="#2E2E38" stroke-width="1.5" stroke-dasharray="4 4"/>
  <path d="M40 320 Q80 270 120 280" stroke="#FFE600" stroke-width="1.5" stroke-dasharray="4 4"/>
  
  <!-- Document Icons -->
  <g transform="translate(380, 170) rotate(15)">
    <rect width="40" height="50" rx="3" fill="#FFFFFF" stroke="#2E2E38" stroke-width="1.5"/>
    <rect x="5" y="10" width="30" height="3" rx="1.5" fill="#EBEBF0"/>
    <rect x="5" y="18" width="20" height="3" rx="1.5" fill="#EBEBF0"/>
    <rect x="5" y="26" width="30" height="3" rx="1.5" fill="#EBEBF0"/>
    <rect x="5" y="34" width="15" height="3" rx="1.5" fill="#EBEBF0"/>
  </g>
  
  <g transform="translate(35, 170) rotate(-15)">
    <rect width="40" height="50" rx="3" fill="#FFFFFF" stroke="#2E2E38" stroke-width="1.5"/>
    <rect x="5" y="10" width="30" height="3" rx="1.5" fill="#EBEBF0"/>
    <rect x="5" y="18" width="20" height="3" rx="1.5" fill="#EBEBF0"/>
    <rect x="5" y="26" width="30" height="3" rx="1.5" fill="#EBEBF0"/>
    <rect x="5" y="34" width="15" height="3" rx="1.5" fill="#EBEBF0"/>
  </g>
</svg>